<?xml version="1.0" standalone="no"?>
<!DOCTYPE svg PUBLIC "-//W3C//DTD SVG 20010904//EN"
 "http://www.w3.org/TR/2001/REC-SVG-20010904/DTD/svg10.dtd">
<svg version="1.0" xmlns="http://www.w3.org/2000/svg"
 width="444.000000pt" height="444.000000pt" viewBox="0 0 444.000000 444.000000"
 preserveAspectRatio="xMidYMid meet">

<g transform="translate(0.000000,444.000000) scale(0.100000,-0.100000)"
fill="#000000" stroke="none">
<path d="M1165 4170 l-90 -49 3 -268 c3 -223 1 -274 -11 -304 -9 -19 -14 -51
-13 -71 2 -20 -1 -42 -5 -50 -7 -10 -9 -9 -9 5 0 9 -4 17 -10 17 -5 0 -10 -13
-10 -29 0 -16 -4 -41 -10 -55 -7 -19 -6 -26 3 -26 7 0 8 -3 2 -8 -18 -13 -35
-51 -35 -78 0 -14 -5 -35 -11 -47 -13 -24 -17 -74 -23 -347 -4 -169 -2 -206
15 -276 10 -45 19 -91 19 -103 0 -11 10 -39 21 -61 16 -31 19 -44 10 -53 -12
-12 -15 -56 -3 -73 4 -6 20 -15 36 -21 36 -11 46 -33 16 -33 -29 0 -76 -26
-84 -45 -3 -9 -6 -44 -6 -78 -1 -34 -7 -88 -14 -119 -12 -50 -12 -66 0 -115 8
-32 23 -102 34 -156 22 -116 51 -206 85 -266 14 -24 22 -47 18 -51 -4 -4 -51
-13 -103 -19 -52 -7 -146 -21 -209 -32 -63 -10 -116 -17 -119 -14 -5 5 42 25
61 25 7 0 4 5 -5 11 -10 5 -18 17 -18 24 0 8 -4 15 -10 15 -5 0 -10 28 -10 63
0 34 -1 71 -1 82 -1 11 2 68 6 127 l8 108 -201 0 c-110 0 -207 3 -216 6 -14 6
-16 -21 -16 -254 0 -199 3 -262 13 -265 10 -4 10 -6 0 -6 -9 -1 -13 -18 -13
-48 0 -53 36 -133 59 -133 24 0 191 29 466 81 143 27 266 49 273 49 22 0 -7
-22 -61 -48 -26 -12 -50 -28 -53 -36 -7 -17 29 -193 85 -427 12 -47 23 -107
26 -133 4 -43 2 -47 -22 -57 -14 -5 -28 -7 -31 -4 -3 3 1 5 9 5 12 0 11 2 -1
10 -8 6 -35 10 -60 10 -25 0 -65 2 -90 4 -25 1 -56 0 -69 -3 -23 -6 -19 -11
53 -69 104 -84 175 -131 303 -202 l108 -60 553 0 c466 0 556 2 568 14 19 20
18 56 -2 56 -8 0 -13 4 -10 8 3 5 6 31 7 59 2 42 6 53 22 57 15 4 18 11 15 30
-3 14 -1 23 3 20 5 -3 9 2 9 11 0 11 5 15 15 11 10 -4 20 6 30 30 8 20 19 33
24 30 16 -10 39 4 45 29 3 13 21 30 41 39 19 9 35 21 35 26 0 4 26 36 57 69
41 45 59 58 65 49 6 -8 7 -5 3 10 -5 17 1 30 24 53 17 17 31 34 31 39 0 4 6
10 13 13 7 2 22 23 32 46 11 22 25 41 31 41 7 0 15 17 19 37 4 21 15 49 26 64
10 15 19 32 19 37 0 6 4 13 9 16 8 5 20 -87 37 -281 6 -71 8 -74 56 -120 75
-73 91 -104 86 -166 -7 -72 -61 -201 -114 -269 l-44 -58 113 0 112 0 110 61
c153 85 365 236 365 259 0 4 -8 10 -17 14 -10 3 -32 14 -50 25 -38 24 -125 41
-205 41 l-58 0 37 34 c54 48 95 56 299 56 l180 0 72 87 c40 48 72 91 72 95 0
4 -45 8 -100 8 -60 0 -100 4 -100 10 0 6 44 10 113 10 106 1 113 2 129 24 l17
23 -185 8 c-101 4 -197 11 -212 15 -15 4 72 6 193 3 l220 -5 23 36 c12 20 22
38 22 41 0 3 -37 5 -82 6 -46 0 -105 4 -133 9 -38 6 -16 8 88 8 76 0 141 3
144 6 4 3 -10 6 -30 6 -21 0 -37 3 -37 8 0 4 18 6 39 4 35 -4 41 -1 55 26 8
16 12 32 9 36 -4 3 -1 6 5 6 6 0 23 23 37 52 25 49 25 52 8 62 -16 9 -16 11 7
17 14 4 -78 8 -205 9 -250 2 -370 7 -455 18 -30 4 109 6 309 5 367 -2 391 0
391 33 0 12 -51 14 -292 15 -161 1 -333 5 -383 9 -78 6 -67 7 90 8 425 1 588
5 555 12 l-35 7 33 2 c27 1 32 5 32 26 l0 25 -312 0 c-171 0 -308 3 -305 6 3
4 136 8 294 10 158 1 296 3 306 3 14 1 17 11 17 62 0 49 -3 60 -15 56 -8 -3
-74 -7 -147 -7 -100 -2 -137 -6 -149 -16 -15 -13 -17 -12 -22 6 -3 11 -1 20 5
20 5 0 6 5 3 10 -3 5 -13 10 -21 10 -11 0 -13 -6 -9 -20 4 -14 2 -20 -8 -20
-8 0 -18 -7 -21 -16 -3 -8 -10 -12 -16 -9 -6 4 -8 11 -5 16 4 5 -1 9 -10 9
-10 0 -13 -5 -9 -12 5 -8 1 -9 -12 -5 -18 7 -18 6 1 -9 19 -16 19 -16 -5 -8
-14 4 -42 7 -63 6 -24 -2 -36 1 -32 8 6 10 -7 14 -32 11 -7 -1 -13 3 -13 9 0
5 -5 10 -11 10 -5 0 -7 -5 -4 -10 6 -9 1 -11 -37 -14 -7 -1 -12 5 -11 12 4 15
-33 16 -42 1 -4 -6 -13 -8 -19 -6 -7 3 -13 -1 -13 -9 0 -8 7 -14 16 -15 12 0
12 -2 3 -6 -14 -5 -52 28 -52 45 0 10 -56 22 -98 22 -36 0 -92 30 -92 49 0 14
2 14 10 1 7 -12 10 -8 10 15 0 23 -3 27 -10 15 -14 -22 -12 -4 10 75 13 48 15
72 8 76 -6 4 -8 16 -5 28 6 25 -6 36 -21 18 -6 -7 -7 -28 -2 -54 7 -42 7 -43
-19 -37 l-26 6 23 -19 c22 -18 23 -25 17 -75 -7 -55 -8 -56 -43 -62 -23 -3
-39 -1 -44 7 -5 7 -8 -2 -8 -21 0 -18 -4 -31 -8 -28 -5 3 -19 -17 -32 -45 -27
-57 -75 -110 -120 -132 -34 -18 -33 -21 -30 78 7 217 2 201 76 302 22 31 29
123 9 123 -8 0 -15 6 -15 13 0 7 -11 24 -24 38 -27 29 -33 55 -41 169 -3 41
-7 89 -10 106 -4 28 -1 33 21 38 23 6 25 11 22 49 -2 24 -8 43 -15 43 -7 1
-23 2 -35 4 -20 1 -19 3 7 11 16 5 40 7 52 4 19 -3 23 1 24 23 1 17 3 21 6 10
7 -27 42 -22 49 7 3 14 10 25 14 25 7 0 19 31 26 70 19 109 21 152 13 370 -1
33 18 120 20 93 1 -8 16 -13 41 -13 36 0 40 3 40 25 0 14 5 25 10 25 6 0 10
-6 9 -12 -3 -25 3 -63 8 -50 7 18 82 16 90 -4 8 -21 23 1 23 34 0 20 4 23 28
18 l27 -7 -3 96 c-2 57 1 101 7 109 7 8 7 16 0 23 -5 5 -9 41 -7 79 l3 68 37
-85 37 -85 2 -165 c2 -90 7 -173 12 -184 6 -12 -7 -4 -34 20 l-44 39 -3 -422
c-1 -270 -6 -422 -12 -422 -6 0 -10 149 -10 417 0 229 -3 414 -6 410 -4 -3 -6
-190 -6 -414 1 -224 -2 -426 -6 -448 l-7 -40 -18 35 -18 35 5 -32 c2 -18 0
-35 -5 -39 -5 -3 -9 -21 -9 -40 0 -32 2 -35 28 -32 l27 3 0 -137 c0 -76 -3
-138 -7 -138 -5 0 -11 -1 -14 -2 -4 -2 -6 35 -5 82 1 47 -3 99 -8 115 -8 24
-10 13 -12 -60 -1 -49 -1 -98 0 -109 2 -28 -18 -46 -53 -47 -51 -1 -1 -16 72
-21 59 -4 62 -3 62 19 0 13 -4 23 -10 23 -6 0 -10 62 -10 165 0 103 4 165 10
165 6 0 10 -60 10 -160 0 -123 3 -160 13 -159 6 1 28 1 47 0 26 -1 31 -4 22
-13 -17 -17 -15 -58 3 -58 13 0 15 50 15 388 0 213 3 577 7 810 l6 422 -30 43
c-16 23 -40 61 -53 85 -13 23 -27 42 -32 42 -4 0 -8 8 -8 18 0 16 -34 62 -45
62 -3 0 0 -12 5 -26 15 -38 13 -127 -2 -122 -7 3 -34 33 -60 69 l-47 64 0 110
c-1 103 -3 113 -31 162 -16 28 -34 54 -40 58 -16 10 -12 -23 7 -58 18 -33 35
-197 20 -197 -4 0 -42 53 -85 118 -42 64 -87 131 -98 147 -76 110 -74 103 -74
219 0 59 4 105 8 102 5 -3 26 -35 47 -70 21 -36 42 -63 46 -60 5 3 9 -3 9 -13
0 -23 34 -75 43 -66 4 3 7 -1 7 -10 0 -10 5 -17 10 -17 12 0 -7 41 -23 52 -6
3 -11 12 -13 20 -1 7 -11 29 -22 48 -12 19 -40 70 -63 113 -42 76 -43 77 -83
77 -31 0 -37 -3 -28 -12 15 -15 16 -92 2 -119 -10 -18 -12 -18 -29 -2 -10 10
-32 38 -50 62 l-31 44 0 -45 c0 -38 9 -57 60 -132 58 -85 60 -91 60 -151 0
-41 -4 -65 -12 -68 -8 -4 -4 -8 10 -12 20 -7 22 -14 22 -72 0 -46 -3 -64 -12
-61 -11 4 -48 59 -65 98 -9 21 -50 52 -93 71 -20 9 -43 23 -52 32 -8 9 -29 24
-46 34 -17 10 -60 38 -96 63 l-65 45 -1 113 0 112 -115 0 c-72 0 -115 -4 -115
-10 0 -6 7 -13 16 -17 8 -3 13 -12 10 -20 -3 -8 -2 -12 3 -8 15 9 54 -54 58
-96 l5 -39 -39 0 c-21 0 -81 3 -134 6 l-97 7 -4 49 c-6 60 -26 77 -91 78 -40
0 -48 3 -45 17 2 9 14 20 28 24 14 4 -98 7 -247 8 l-273 1 0 -40 c0 -27 5 -43
15 -46 8 -4 15 -12 15 -18 0 -7 6 -18 12 -24 7 -7 13 -26 14 -43 1 -26 -3 -31
-27 -36 -16 -3 -32 -10 -35 -14 -9 -16 -64 -10 -64 6 0 8 -5 15 -11 15 -6 0
-9 7 -5 15 3 8 1 15 -4 15 -22 0 -9 38 15 44 14 4 25 12 26 19 0 6 2 33 4 60
l2 47 -69 0 -70 0 7 -61 c11 -96 13 -232 3 -252 -5 -10 -15 -16 -21 -14 -6 2
-19 -5 -28 -16 -15 -19 -16 -13 -22 88 -4 59 -7 141 -7 182 0 69 -1 73 -22 73
-13 0 -63 -23 -113 -50z m42 -87 c-2 -16 -4 -3 -4 27 0 30 2 43 4 28 2 -16 2
-40 0 -55z m0 -125 c-3 -8 -6 -5 -6 6 -1 11 2 17 5 13 3 -3 4 -12 1 -19z
m1895 -165 c59 -92 150 -219 186 -260 27 -31 33 -45 30 -75 -2 -21 -1 -38 2
-38 3 0 6 -20 6 -45 1 -37 -2 -45 -16 -45 -10 0 -23 7 -30 15 -7 8 -25 15 -41
15 -15 0 -31 5 -35 11 -5 8 -9 8 -14 -1 -10 -17 -33 -2 -26 16 6 15 -5 40 -37
83 -13 18 -14 27 -6 38 12 13 -7 43 -51 81 -11 10 -16 42 -19 137 -1 69 1 125
6 125 4 0 25 -26 45 -57z m307 -427 c46 -61 51 -74 52 -122 1 -30 2 -60 3 -66
5 -32 -10 -25 -60 27 l-54 56 0 91 c0 50 2 89 4 87 2 -2 27 -35 55 -73z m-99
-170 c0 -18 -3 -17 -28 7 -15 15 -34 27 -41 27 -7 0 -11 6 -8 15 4 8 2 17 -3
20 -6 4 -10 16 -10 28 0 19 7 14 45 -28 24 -27 44 -59 45 -69z m-947 -39 c7
11 88 -6 126 -27 12 -6 36 -13 54 -15 17 -2 42 -6 55 -10 18 -6 21 -4 16 10
-6 15 -4 16 17 5 13 -7 47 -31 76 -52 73 -54 102 -66 113 -48 13 21 25 5 43
-55 8 -27 29 -79 45 -115 30 -64 46 -155 67 -379 7 -71 1 -81 -50 -81 -48 0
-55 13 -46 81 1 3 16 4 34 2 l32 -4 -25 15 c-14 8 -39 15 -56 16 l-30 0 6 -50
c8 -65 -5 -92 -49 -101 -18 -4 -36 -12 -40 -17 -3 -6 -25 -18 -49 -27 -23 -10
-42 -21 -42 -26 0 -5 -17 -9 -37 -9 -34 1 -36 2 -20 14 16 12 15 14 -13 19
-25 5 -30 11 -30 34 1 16 12 41 25 57 21 27 26 29 49 18 28 -13 33 -31 14 -50
-17 -17 4 -15 30 3 16 12 27 13 41 5 25 -13 34 -13 25 1 -3 6 -1 15 5 19 24
14 -18 77 -68 100 l-46 21 95 -5 c113 -6 81 9 -42 20 -50 4 -75 10 -66 15 8 6
-2 9 -29 9 -36 0 -41 3 -36 18 8 20 26 36 68 59 38 21 220 29 232 10 5 -7 17
-19 28 -27 19 -14 19 -14 6 3 -12 15 -9 21 12 18 24 -4 -21 64 -59 90 -16 10
-46 19 -66 19 -21 0 -41 6 -45 14 -9 14 -83 32 -83 19 0 -4 -68 -9 -151 -10
-112 -2 -156 -6 -168 -16 -33 -28 -44 -31 -32 -8 16 29 -5 28 -36 0 -20 -20
-23 -20 -29 -5 -6 15 -7 15 -20 -1 -11 -15 -15 -16 -23 -4 -11 16 -28 -11 -48
-74 -18 -56 -16 -64 12 -75 15 -6 25 -18 26 -30 1 -11 2 -28 2 -38 3 -46 -55
-82 -133 -82 -52 0 -60 10 -60 70 1 89 -4 130 -15 130 -6 0 -16 14 -22 30 -6
17 -18 30 -27 30 -9 0 -16 5 -16 10 0 6 -9 10 -20 10 -11 0 -20 5 -20 10 0 18
-48 30 -75 20 -20 -8 -27 -6 -35 11 -6 11 -16 19 -23 17 -16 -3 -57 24 -57 38
0 7 -9 14 -20 17 -12 3 -20 14 -20 27 0 18 3 20 14 11 11 -9 15 -7 19 9 3 12
13 20 27 20 14 0 26 11 36 33 29 62 38 72 62 69 12 -2 22 1 22 7 0 6 -5 10
-12 9 -6 -2 -13 4 -15 13 -4 16 36 49 64 53 8 1 18 9 23 16 7 12 12 12 27 -2
21 -19 81 -17 93 3 7 11 13 9 31 -6 16 -14 23 -16 26 -7 6 17 24 15 39 -5 18
-25 17 -44 -2 -36 -8 3 -13 12 -10 19 3 8 -1 14 -9 14 -8 0 -15 -9 -15 -20 0
-11 7 -20 15 -20 9 0 12 -6 9 -15 -4 -8 -2 -21 4 -28 7 -8 6 -18 -3 -31 -17
-23 -9 -46 16 -46 12 0 19 7 19 19 0 10 7 21 15 25 8 3 14 9 14 13 -1 4 2 17
6 27 6 13 3 23 -10 32 -17 12 -17 15 -3 31 8 10 18 27 22 38 5 15 9 16 15 6 6
-9 11 -10 15 -2 4 6 16 11 26 11 10 0 25 7 34 15 8 8 19 15 25 15 6 0 11 6 11
13 0 8 3 8 9 -2 12 -18 41 -7 42 16 0 16 1 16 8 -1 4 -12 10 -15 14 -9z m1041
-59 c10 -15 13 -28 8 -28 -12 0 -62 54 -62 68 0 19 35 -6 54 -40z m133 -410
c-2 -24 -4 -7 -4 37 0 44 2 63 4 43 2 -21 2 -57 0 -80z m0 -390 c-1 -62 -3
-12 -3 112 0 124 2 174 3 113 2 -62 2 -164 0 -225z m-888 181 c17 -6 36 -20
42 -32 9 -16 9 -19 -2 -15 -8 3 -34 14 -59 23 -25 10 -49 22 -54 27 -14 12 35
10 73 -3z m-396 -45 c-1 -20 -4 -39 -7 -41 -2 -3 0 -18 6 -34 7 -19 15 -28 24
-25 16 6 17 4 8 -18 -9 -23 -17 -20 -32 14 -8 17 -19 30 -25 30 -6 0 -19 8
-30 18 -20 17 -20 16 -13 -28 4 -25 16 -60 27 -78 10 -18 19 -39 19 -46 0 -8
7 -20 16 -27 14 -11 18 -10 30 5 7 10 11 30 8 46 -9 45 22 33 84 -32 58 -61
58 -61 129 -48 1 0 7 18 13 40 l11 40 92 -1 c77 -1 100 2 137 21 25 12 53 34
61 49 22 38 87 58 130 41 30 -13 31 -15 25 -62 -10 -72 -40 -134 -74 -152 -76
-39 -441 -47 -577 -12 -33 9 -64 16 -69 16 -12 0 12 -27 46 -51 22 -16 32 -18
43 -9 10 9 42 9 129 0 128 -13 311 -1 403 25 60 18 85 44 103 112 7 26 16 52
20 56 8 10 27 -81 35 -173 14 -146 -50 -555 -105 -676 -16 -36 -27 -71 -23
-78 9 -14 5 -44 -10 -75 -9 -19 -9 -25 5 -35 15 -11 14 -15 -13 -39 -23 -20
-30 -34 -28 -54 2 -16 -1 -36 -7 -45 -9 -16 -13 -16 -53 -2 -24 8 -50 13 -57
10 -8 -3 -26 -1 -42 5 -25 9 -30 17 -36 56 -3 25 -6 63 -6 84 0 20 -5 39 -11
41 -9 3 -9 10 1 27 6 13 8 21 2 18 -5 -4 -14 11 -20 32 -13 43 -89 105 -116
95 -9 -3 -23 -1 -30 6 -8 6 -36 14 -62 16 -26 3 -56 14 -67 24 -11 11 -24 17
-28 14 -5 -2 -16 7 -25 21 -9 14 -25 25 -36 25 -12 0 -22 9 -25 21 -4 15 -12
20 -34 17 -20 -2 -38 7 -69 35 -23 20 -48 37 -56 37 -19 0 -18 7 7 42 l22 30
-23 -7 c-18 -6 -22 -4 -17 8 3 8 -3 23 -13 32 -10 9 -35 50 -56 91 l-37 74 13
77 c13 82 21 175 20 231 0 18 6 48 14 67 13 31 19 35 51 35 33 0 38 -5 85 -77
27 -43 57 -87 65 -98 l16 -20 -6 20 c-24 71 -48 175 -46 200 1 33 41 75 70 75
14 0 17 -7 14 -36z m-1076 -30 c14 -30 0 -40 -47 -31 -18 4 -30 2 -34 -6 -3
-8 -5 -8 -5 -1 -2 19 39 64 57 64 9 0 22 -12 29 -26z m946 9 c-7 -2 -21 -2
-30 0 -10 3 -4 5 12 5 17 0 24 -2 18 -5z m920 -29 c8 -9 -11 -44 -23 -44 -6 0
-10 11 -10 25 0 23 18 34 33 19z m-1373 -32 c0 -5 -7 -9 -15 -9 -8 0 -15 4
-15 9 0 4 7 8 15 8 8 0 15 -4 15 -8z m-515 -206 c6 -13 5 -17 -3 -12 -14 8
-52 110 -52 139 0 12 11 -7 24 -43 12 -36 26 -74 31 -84z m15 119 c0 -8 -4
-15 -10 -15 -5 0 -10 7 -10 15 0 8 5 15 10 15 6 0 10 -7 10 -15z m2405 -138
c-6 -38 -10 -44 -26 -40 -18 5 -19 6 -2 19 17 12 17 13 1 19 -10 4 -18 17 -17
29 0 20 1 20 9 1 8 -20 9 -20 9 1 1 26 12 37 24 25 5 -5 6 -29 2 -54z m-38
-269 c-1 -40 -3 -10 -3 67 0 77 1 110 3 73 2 -37 2 -100 0 -140z m-62 162 c3
-5 -1 -10 -10 -10 -9 0 -13 5 -10 10 3 6 8 10 10 10 2 0 7 -4 10 -10z m-413
-142 c-7 -30 -22 -9 -18 25 6 44 7 45 15 17 4 -14 5 -33 3 -42z m475 -130 c-3
-7 -5 -2 -5 12 0 14 2 19 5 13 2 -7 2 -19 0 -25z m-1519 -70 c-2 -15 -11 -24
-25 -26 -19 -3 -23 1 -23 22 0 21 5 26 26 26 21 0 25 -4 22 -22z m-1512 -48
c-5 -40 -4 -50 8 -50 8 0 18 -5 21 -10 10 -16 -12 -37 -38 -37 -21 0 -22 2
-17 61 5 57 14 86 27 86 3 0 3 -22 -1 -50z m-64 -92 c-15 -15 -26 -4 -18 18 5
13 9 15 18 6 9 -9 9 -15 0 -24z m2901 17 c4 -8 -10 -31 -33 -56 -22 -23 -37
-46 -34 -51 3 -5 12 -4 20 3 8 6 14 8 14 4 0 -13 -34 -65 -43 -65 -5 0 -6 -8
-2 -19 3 -12 0 -21 -10 -25 -9 -3 -15 -18 -16 -33 0 -16 -2 -91 -4 -168 -2
-77 -4 -220 -5 -317 0 -98 -4 -178 -8 -178 -5 0 -8 123 -8 273 0 149 -1 322
-3 383 l-3 111 -42 1 c-69 0 -70 1 -43 22 16 13 24 27 20 36 -4 11 0 15 13 13
22 -2 52 8 74 26 18 15 92 55 101 55 4 0 9 -7 12 -15z m210 -42 c-7 -2 -19 -2
-25 0 -7 3 -2 5 12 5 14 0 19 -2 13 -5z m32 -23 c27 -7 25 -8 -15 -8 -25 0
-58 4 -75 8 -27 7 -25 8 15 8 25 0 59 -4 75 -8z m-1366 -31 c20 -6 55 -17 79
-24 23 -8 49 -12 58 -8 8 3 23 -4 33 -16 10 -11 24 -21 30 -21 7 0 9 -4 6 -10
-10 -16 -57 -12 -126 11 -35 11 -68 22 -74 23 -5 1 -15 5 -21 9 -7 4 -27 1
-45 -7 -55 -22 -95 -26 -114 -12 -26 19 -10 36 33 36 20 0 46 7 56 15 24 18
38 19 85 4z m-1602 -125 c-3 -3 -12 -4 -19 -1 -8 3 -5 6 6 6 11 1 17 -2 13 -5z
m-58 -9 c-3 -2 -54 -11 -114 -19 -61 -8 -117 -17 -126 -21 -10 -3 -20 -2 -23
3 -3 6 31 15 82 22 48 6 92 13 97 15 15 5 89 6 84 0z m1786 -15 c3 -5 14 -10
25 -10 14 0 17 -5 13 -21 -6 -20 -4 -21 23 -13 38 11 145 6 161 -8 7 -6 13
-20 13 -31 0 -11 8 -29 17 -39 14 -16 15 -23 5 -38 -6 -11 -9 -27 -5 -36 5
-14 3 -16 -11 -11 -12 5 -19 -1 -27 -20 -13 -34 -39 -54 -63 -47 -10 3 -33 -2
-51 -11 -42 -23 -66 -16 -140 40 -35 26 -76 48 -97 51 -32 5 -38 11 -38 30 0
13 -4 24 -10 24 -5 0 -7 7 -4 15 4 8 1 15 -5 15 -24 0 -22 30 5 69 25 39 63
58 50 26 -7 -19 10 -20 21 -1 13 23 106 36 118 16z m1322 -6 c-3 -3 -12 -4
-19 -1 -8 3 -5 6 6 6 11 1 17 -2 13 -5z m40 0 c-3 -3 -12 -4 -19 -1 -8 3 -5 6
6 6 11 1 17 -2 13 -5z m-1022 -215 c11 -17 -1 -21 -15 -4 -8 9 -8 15 -2 15 6
0 14 -5 17 -11z m918 4 c-7 -2 -21 -2 -30 0 -10 3 -4 5 12 5 17 0 24 -2 18 -5z
m172 -8 c6 -2 -16 -4 -47 -4 -31 -1 -59 3 -62 7 -5 8 85 5 109 -3z m-1041 -20
c-4 -8 -1 -15 5 -15 6 0 11 -7 11 -15 0 -13 -4 -14 -22 -3 -13 7 -29 11 -35
10 -7 -2 -13 2 -13 8 0 6 5 8 10 5 6 -3 13 1 16 9 3 9 12 16 20 16 8 0 11 -6
8 -15z m88 -27 c-7 -7 -12 -8 -12 -3 0 5 -7 0 -15 -11 -14 -18 -14 -18 -15 0
0 23 31 48 45 35 5 -6 5 -13 -3 -21z m-277 -18 c3 -5 -1 -10 -9 -10 -9 0 -16
5 -16 10 0 6 4 10 9 10 6 0 13 -4 16 -10z m-205 -101 c15 -13 18 -19 8 -15 -9
2 -18 0 -20 -6 -4 -11 -48 24 -48 37 0 13 37 3 60 -16z m1438 2 c1 -1 2 -5 2
-9 0 -9 -149 3 -158 13 -5 5 132 1 156 -4z m-1528 -16 c58 -5 56 -4 34 -19
-14 -11 -21 -11 -26 -3 -4 7 -13 12 -20 13 -34 3 -39 5 -33 14 4 6 12 7 18 3
7 -4 19 -8 27 -8z m1627 -31 c-3 -3 -12 -4 -19 -1 -8 3 -5 6 6 6 11 1 17 -2
13 -5z m-690 -229 c25 -23 31 -32 18 -29 -18 5 -74 64 -61 64 3 0 22 -16 43
-35z m-740 -147 c-3 -8 -6 -5 -6 6 -1 11 2 17 5 13 3 -3 4 -12 1 -19z"/>
<path d="M3183 3431 c-7 -11 -8 -23 -2 -32 6 -10 9 -10 9 -1 0 6 7 12 15 12
18 0 19 14 2 28 -9 8 -16 6 -24 -7z"/>
<path d="M2891 2324 c0 -11 3 -14 6 -6 3 7 2 16 -1 19 -3 4 -6 -2 -5 -13z"/>
<path d="M2128 1822 c-31 -19 -36 -32 -13 -32 8 0 15 -4 15 -10 0 -5 20 -15
44 -21 43 -11 72 -39 41 -39 -8 0 -15 -4 -15 -9 0 -12 33 -23 51 -17 8 2 26 7
40 10 15 3 30 13 33 22 5 13 2 15 -13 11 -13 -3 -18 0 -15 7 10 26 -16 67 -51
81 -44 19 -83 18 -117 -3z"/>
<path d="M2307 4203 c-8 -7 11 -33 24 -33 5 0 9 9 9 20 0 19 -20 27 -33 13z"/>
<path d="M2278 4163 c-2 -10 1 -38 6 -63 l11 -45 3 54 c3 53 -11 91 -20 54z"/>
<path d="M3272 4143 c7 -16 15 -32 20 -37 4 -6 8 -16 8 -24 0 -8 8 -26 19 -40
10 -15 82 -153 161 -307 189 -370 220 -433 220 -449 0 -8 14 -28 30 -46 18
-19 30 -26 30 -18 0 8 -3 18 -7 22 -7 7 -9 22 -17 171 -4 55 -7 111 -9 124 -1
19 4 26 28 33 17 4 38 6 48 4 9 -2 17 1 17 7 0 6 2 8 5 5 16 -15 -9 -55 -41
-67 -19 -7 -34 -15 -34 -19 1 -20 21 -34 51 -36 20 -1 34 -7 33 -14 -2 -28 -5
-32 -20 -32 -24 0 -15 -34 58 -204 l62 -147 107 7 c59 3 132 9 163 13 l56 6
-53 105 -52 105 -80 0 c-44 -1 -111 -4 -150 -8 -46 -5 -65 -5 -56 2 8 5 62 13
119 16 58 4 115 10 128 14 22 6 22 6 -13 63 l-35 56 -110 -4 c-99 -3 -109 -2
-106 13 3 17 90 42 151 43 27 0 27 1 13 21 -11 17 -26 22 -68 24 -98 4 -100 4
-96 22 2 9 20 21 43 27 23 7 40 18 40 26 0 17 -24 18 -130 6 -96 -11 -78 1 26
17 l84 13 -69 72 c-62 64 -71 70 -98 65 -29 -6 -30 -5 -24 24 6 27 2 34 -32
62 -31 24 -46 30 -69 25 -24 -5 -31 -2 -41 20 -8 19 -9 26 0 26 20 0 -24 39
-111 98 -85 58 -193 122 -205 122 -3 0 0 -12 6 -27z m159 -218 c0 6 5 -3 9
-19 16 -51 -2 -51 -26 0 -28 61 -30 79 -4 39 11 -16 20 -25 21 -20z m269 -118
c0 -10 -4 -16 -9 -13 -5 3 -11 -1 -15 -9 -7 -20 -32 -19 -40 1 -13 35 -7 45
29 42 27 -2 35 -7 35 -21z"/>
<path d="M3230 3887 c0 -5 6 -15 14 -23 8 -7 16 -19 19 -26 2 -7 7 -11 10 -8
3 3 -5 19 -18 35 -13 17 -24 26 -25 22z"/>
<path d="M677 3584 c-3 -3 -19 -6 -145 -23 -40 -5 -80 -15 -88 -22 -19 -16
-74 -96 -137 -201 l-47 -78 0 -114 c0 -126 2 -129 62 -120 20 4 75 -5 138 -21
57 -14 116 -28 130 -30 14 -2 40 -6 57 -10 43 -10 67 9 59 46 -3 15 -1 29 4
31 5 2 12 122 16 269 l7 266 -26 5 c-15 3 -28 4 -30 2z"/>
<path d="M3432 2660 c0 -14 2 -19 5 -12 2 6 2 18 0 25 -3 6 -5 1 -5 -13z"/>
<path d="M260 2440 c0 -5 5 -10 10 -10 6 0 10 5 10 10 0 6 -4 10 -10 10 -5 0
-10 -4 -10 -10z"/>
<path d="M384 2400 c-13 -13 -83 -17 -106 -6 -16 7 -17 -12 -18 -284 l0 -291
210 4 c116 2 212 6 214 8 2 2 6 97 8 212 3 168 1 207 -10 207 -7 0 -20 7 -29
15 -13 14 -11 16 16 21 26 6 31 11 31 35 0 26 -3 29 -25 25 -14 -3 -23 -1 -20
3 2 5 -12 11 -33 15 -66 11 -87 7 -97 -16 -14 -30 -42 -32 -49 -2 -4 13 -11
24 -16 24 -6 0 -10 7 -10 16 0 8 -4 12 -10 9 -5 -3 -10 -1 -10 6 0 9 -3 9 -14
0 -10 -8 -15 -9 -18 -1 -2 7 -6 8 -14 0z m26 -535 c-26 -28 -51 -35 -29 -9 12
15 11 16 -11 9 -22 -7 -23 -6 -11 9 7 9 27 16 44 16 l30 0 -23 -25z"/>
<path d="M3165 2320 c-3 -5 1 -10 9 -10 8 0 18 5 21 10 3 6 -1 10 -9 10 -8 0
-18 -4 -21 -10z"/>
<path d="M3333 2030 c0 -30 2 -43 4 -27 2 15 2 39 0 55 -2 15 -4 2 -4 -28z"/>
<path d="M3222 2025 c0 -16 2 -22 5 -12 2 9 2 23 0 30 -3 6 -5 -1 -5 -18z"/>
<path d="M3327 1956 c-4 -10 -5 -21 -2 -24 9 -9 17 6 13 25 -3 17 -4 17 -11
-1z"/>
<path d="M3410 1946 c0 -2 7 -9 15 -16 12 -10 15 -10 15 4 0 9 -7 16 -15 16
-8 0 -15 -2 -15 -4z"/>
<path d="M3380 1918 c0 -10 -5 -18 -12 -18 -6 0 -9 -3 -5 -6 3 -3 12 -2 21 3
10 6 12 13 6 23 -8 13 -10 12 -10 -2z"/>
</g>
</svg>
